<?xml version="1.0" encoding="UTF-8" standalone="no"?>
<!DOCTYPE svg PUBLIC "-//W3C//DTD SVG 1.1//EN"
 "http://www.w3.org/Graphics/SVG/1.1/DTD/svg11.dtd">
<!-- Generated by graphviz version 14.1.1 (20251213.1925)
 -->
<!-- Title: Component_System Pages: 1 -->
<svg width="925pt" height="539pt"
 viewBox="0.00 0.00 925.00 539.00" xmlns="http://www.w3.org/2000/svg" xmlns:xlink="http://www.w3.org/1999/xlink">
<g id="graph0" class="graph" transform="scale(1 1) rotate(0) translate(4 535)">
<title>Component_System</title>
<polygon fill="white" stroke="none" points="-4,4 -4,-535 920.57,-535 920.57,4 -4,4"/>
<text xml:space="preserve" text-anchor="middle" x="458.29" y="-509.9" font-family="Times,serif" font-size="18.00">OHAO Engine &#45; Entity Component System</text>
<g id="clust1" class="cluster">
<title>cluster_components</title>
<polygon fill="lightgray" stroke="lightgray" points="8,-8 8,-346.5 883,-346.5 883,-8 8,-8"/>
<text xml:space="preserve" text-anchor="middle" x="445.5" y="-325.4" font-family="Times,serif" font-size="18.00">Components (attached to Actor)</text>
</g>
<!-- Scene -->
<g id="node1" class="node">
<title>Scene</title>
<polygon fill="lightblue" stroke="black" points="615.88,-502 612.88,-506 591.88,-506 588.88,-502 494.12,-502 494.12,-464 615.88,-464 615.88,-502"/>
<text xml:space="preserve" text-anchor="middle" x="555" y="-484.7" font-family="Helvetica,sans-Serif" font-size="14.00">Scene</text>
<text xml:space="preserve" text-anchor="middle" x="555" y="-469.7" font-family="Helvetica,sans-Serif" font-size="14.00">(manages actors)</text>
</g>
<!-- Actor -->
<g id="node2" class="node">
<title>Actor</title>
<polygon fill="lightskyblue" stroke="black" points="613.25,-411.5 496.75,-411.5 496.75,-373.5 613.25,-373.5 613.25,-411.5"/>
<text xml:space="preserve" text-anchor="middle" x="555" y="-394.2" font-family="Helvetica,sans-Serif" font-size="14.00">Actor</text>
<text xml:space="preserve" text-anchor="middle" x="555" y="-379.2" font-family="Helvetica,sans-Serif" font-size="14.00">(entity container)</text>
</g>
<!-- Scene&#45;&gt;Actor -->
<g id="edge1" class="edge">
<title>Scene&#45;&gt;Actor</title>
<path fill="none" stroke="black" d="M555,-463.66C555,-451.92 555,-436.41 555,-422.96"/>
<polygon fill="black" stroke="black" points="558.5,-423.33 555,-413.33 551.5,-423.33 558.5,-423.33"/>
<text xml:space="preserve" text-anchor="middle" x="594.75" y="-432.7" font-family="Times,serif" font-size="14.00">contains many</text>
</g>
<!-- Transform -->
<g id="node3" class="node">
<title>Transform</title>
<polygon fill="lightgreen" stroke="black" points="217.62,-309.5 16.38,-309.5 16.38,-196.5 217.62,-196.5 217.62,-309.5"/>
<text xml:space="preserve" text-anchor="middle" x="117" y="-292.2" font-family="Helvetica,sans-Serif" font-size="14.00">TransformComponent</text>
<text xml:space="preserve" text-anchor="middle" x="117" y="-277.2" font-family="Helvetica,sans-Serif" font-size="14.00">─────────────</text>
<text xml:space="preserve" text-anchor="middle" x="117" y="-262.2" font-family="Helvetica,sans-Serif" font-size="14.00">position: vec3</text>
<text xml:space="preserve" text-anchor="middle" x="117" y="-247.2" font-family="Helvetica,sans-Serif" font-size="14.00">rotation: quat</text>
<text xml:space="preserve" text-anchor="middle" x="117" y="-232.2" font-family="Helvetica,sans-Serif" font-size="14.00">scale: vec3</text>
<text xml:space="preserve" text-anchor="middle" x="117" y="-217.2" font-family="Helvetica,sans-Serif" font-size="14.00">─────────────</text>
<text xml:space="preserve" text-anchor="middle" x="117" y="-202.2" font-family="Helvetica,sans-Serif" font-size="14.00">getWorldMatrix()</text>
</g>
<!-- Actor&#45;&gt;Transform -->
<g id="edge2" class="edge">
<title>Actor&#45;&gt;Transform</title>
<path fill="none" stroke="black" d="M496.4,-387.44C415.19,-381.15 273.12,-367.53 226,-346.5 209.58,-339.17 193.72,-328.58 179.42,-317.16"/>
<polygon fill="black" stroke="black" points="181.83,-314.61 171.89,-310.93 177.37,-320 181.83,-314.61"/>
</g>
<!-- Mesh -->
<g id="node4" class="node">
<title>Mesh</title>
<polygon fill="lightgreen" stroke="black" points="436.62,-309.5 235.38,-309.5 235.38,-196.5 436.62,-196.5 436.62,-309.5"/>
<text xml:space="preserve" text-anchor="middle" x="336" y="-292.2" font-family="Helvetica,sans-Serif" font-size="14.00">MeshComponent</text>
<text xml:space="preserve" text-anchor="middle" x="336" y="-277.2" font-family="Helvetica,sans-Serif" font-size="14.00">─────────────</text>
<text xml:space="preserve" text-anchor="middle" x="336" y="-262.2" font-family="Helvetica,sans-Serif" font-size="14.00">vertices[]</text>
<text xml:space="preserve" text-anchor="middle" x="336" y="-247.2" font-family="Helvetica,sans-Serif" font-size="14.00">indices[]</text>
<text xml:space="preserve" text-anchor="middle" x="336" y="-232.2" font-family="Helvetica,sans-Serif" font-size="14.00">model: shared_ptr</text>
<text xml:space="preserve" text-anchor="middle" x="336" y="-217.2" font-family="Helvetica,sans-Serif" font-size="14.00">─────────────</text>
<text xml:space="preserve" text-anchor="middle" x="336" y="-202.2" font-family="Helvetica,sans-Serif" font-size="14.00">isVisible()</text>
</g>
<!-- Actor&#45;&gt;Mesh -->
<g id="edge3" class="edge">
<title>Actor&#45;&gt;Mesh</title>
<path fill="none" stroke="black" d="M500.2,-373.01C482.04,-365.87 462.1,-356.89 445,-346.5 430.91,-337.94 416.79,-327.59 403.6,-316.96"/>
<polygon fill="black" stroke="black" points="406.2,-314.56 396.25,-310.91 401.75,-319.96 406.2,-314.56"/>
</g>
<!-- Material -->
<g id="node5" class="node">
<title>Material</title>
<polygon fill="lightgreen" stroke="black" points="655.62,-302 454.38,-302 454.38,-204 655.62,-204 655.62,-302"/>
<text xml:space="preserve" text-anchor="middle" x="555" y="-284.7" font-family="Helvetica,sans-Serif" font-size="14.00">MaterialComponent</text>
<text xml:space="preserve" text-anchor="middle" x="555" y="-269.7" font-family="Helvetica,sans-Serif" font-size="14.00">─────────────</text>
<text xml:space="preserve" text-anchor="middle" x="555" y="-254.7" font-family="Helvetica,sans-Serif" font-size="14.00">baseColor: vec3</text>
<text xml:space="preserve" text-anchor="middle" x="555" y="-239.7" font-family="Helvetica,sans-Serif" font-size="14.00">metallic: float</text>
<text xml:space="preserve" text-anchor="middle" x="555" y="-224.7" font-family="Helvetica,sans-Serif" font-size="14.00">roughness: float</text>
<text xml:space="preserve" text-anchor="middle" x="555" y="-209.7" font-family="Helvetica,sans-Serif" font-size="14.00">ao: float</text>
</g>
<!-- Actor&#45;&gt;Material -->
<g id="edge4" class="edge">
<title>Actor&#45;&gt;Material</title>
<path fill="none" stroke="black" d="M555,-373.24C555,-357.95 555,-335.22 555,-313.7"/>
<polygon fill="black" stroke="black" points="558.5,-313.78 555,-303.78 551.5,-313.78 558.5,-313.78"/>
</g>
<!-- Light -->
<g id="node6" class="node">
<title>Light</title>
<polygon fill="lightyellow" stroke="black" points="874.62,-302 673.38,-302 673.38,-204 874.62,-204 874.62,-302"/>
<text xml:space="preserve" text-anchor="middle" x="774" y="-284.7" font-family="Helvetica,sans-Serif" font-size="14.00">LightComponent</text>
<text xml:space="preserve" text-anchor="middle" x="774" y="-269.7" font-family="Helvetica,sans-Serif" font-size="14.00">─────────────</text>
<text xml:space="preserve" text-anchor="middle" x="774" y="-254.7" font-family="Helvetica,sans-Serif" font-size="14.00">type: Dir/Point/Spot</text>
<text xml:space="preserve" text-anchor="middle" x="774" y="-239.7" font-family="Helvetica,sans-Serif" font-size="14.00">color: vec3</text>
<text xml:space="preserve" text-anchor="middle" x="774" y="-224.7" font-family="Helvetica,sans-Serif" font-size="14.00">intensity: float</text>
<text xml:space="preserve" text-anchor="middle" x="774" y="-209.7" font-family="Helvetica,sans-Serif" font-size="14.00">range: float</text>
</g>
<!-- Actor&#45;&gt;Light -->
<g id="edge5" class="edge">
<title>Actor&#45;&gt;Light</title>
<path fill="none" stroke="black" d="M609.8,-373.01C627.96,-365.87 647.9,-356.89 665,-346.5 682.27,-336.01 699.58,-322.83 715.16,-309.74"/>
<polygon fill="black" stroke="black" points="717.15,-312.64 722.47,-303.48 712.6,-307.32 717.15,-312.64"/>
</g>
<!-- Physics -->
<g id="node7" class="node">
<title>Physics</title>
<polygon fill="lightcoral" stroke="black" points="312.62,-144 111.38,-144 111.38,-16 312.62,-16 312.62,-144"/>
<text xml:space="preserve" text-anchor="middle" x="212" y="-126.7" font-family="Helvetica,sans-Serif" font-size="14.00">PhysicsComponent</text>
<text xml:space="preserve" text-anchor="middle" x="212" y="-111.7" font-family="Helvetica,sans-Serif" font-size="14.00">─────────────</text>
<text xml:space="preserve" text-anchor="middle" x="212" y="-96.7" font-family="Helvetica,sans-Serif" font-size="14.00">rigidBody: RigidBody*</text>
<text xml:space="preserve" text-anchor="middle" x="212" y="-81.7" font-family="Helvetica,sans-Serif" font-size="14.00">mass: float</text>
<text xml:space="preserve" text-anchor="middle" x="212" y="-66.7" font-family="Helvetica,sans-Serif" font-size="14.00">colliderType: enum</text>
<text xml:space="preserve" text-anchor="middle" x="212" y="-51.7" font-family="Helvetica,sans-Serif" font-size="14.00">─────────────</text>
<text xml:space="preserve" text-anchor="middle" x="212" y="-36.7" font-family="Helvetica,sans-Serif" font-size="14.00">syncToTransform()</text>
<text xml:space="preserve" text-anchor="middle" x="212" y="-21.7" font-family="Helvetica,sans-Serif" font-size="14.00">syncFromTransform()</text>
</g>
<!-- Actor&#45;&gt;Physics -->
<g id="edge6" class="edge">
<title>Actor&#45;&gt;Physics</title>
<path fill="none" stroke="black" d="M613.63,-392.3C698.61,-392.06 849.6,-385.92 884,-346.5 927.83,-296.27 926.96,-247.48 884,-196.5 813.73,-113.12 496.55,-89.93 324.25,-83.48"/>
<polygon fill="black" stroke="black" points="324.49,-79.99 314.37,-83.13 324.24,-86.98 324.49,-79.99"/>
</g>
<!-- Transform&#45;&gt;Physics -->
<g id="edge7" class="edge">
<title>Transform&#45;&gt;Physics</title>
<path fill="none" stroke="blue" stroke-dasharray="5,2" d="M110.4,-196.11C110.98,-184.43 113.12,-172.48 118,-162 119.3,-159.21 120.74,-156.48 122.31,-153.82"/>
<polygon fill="blue" stroke="blue" points="125.09,-155.96 127.69,-145.69 119.25,-152.1 125.09,-155.96"/>
<text xml:space="preserve" text-anchor="middle" x="154" y="-165.2" font-family="Times,serif" font-size="14.00">position sync</text>
</g>
<!-- Physics&#45;&gt;Transform -->
<g id="edge8" class="edge">
<title>Physics&#45;&gt;Transform</title>
<path fill="none" stroke="red" stroke-dasharray="5,2" d="M203.15,-144.27C200.01,-156.08 195.76,-168 190,-178.5 188.42,-181.38 186.69,-184.23 184.84,-187.03"/>
<polygon fill="red" stroke="red" points="182.02,-184.96 179.04,-195.12 187.71,-189.03 182.02,-184.96"/>
<text xml:space="preserve" text-anchor="middle" x="236.96" y="-165.2" font-family="Times,serif" font-size="14.00">physics update</text>
</g>
</g>
</svg>
