<?xml version="1.0" encoding="UTF-8" standalone="no"?>
<!DOCTYPE svg PUBLIC "-//W3C//DTD SVG 1.1//EN"
 "http://www.w3.org/Graphics/SVG/1.1/DTD/svg11.dtd">
<!-- Generated by graphviz version 14.1.1 (20251213.1925)
 -->
<!-- Title: Rendering_Pipeline Pages: 1 -->
<svg width="1435pt" height="245pt"
 viewBox="0.00 0.00 1435.00 245.00" xmlns="http://www.w3.org/2000/svg" xmlns:xlink="http://www.w3.org/1999/xlink">
<g id="graph0" class="graph" transform="scale(1 1) rotate(0) translate(4 240.5)">
<title>Rendering_Pipeline</title>
<polygon fill="white" stroke="none" points="-4,4 -4,-240.5 1430.93,-240.5 1430.93,4 -4,4"/>
<text xml:space="preserve" text-anchor="middle" x="713.47" y="-215.4" font-family="Times,serif" font-size="18.00">OHAO Engine &#45; Rendering Pipeline (Per Frame)</text>
<g id="clust1" class="cluster">
<title>cluster_frame</title>
<polygon fill="none" stroke="gray" stroke-dasharray="5,2" points="8,-63.5 8,-199.5 1418.93,-199.5 1418.93,-63.5 8,-63.5"/>
<text xml:space="preserve" text-anchor="middle" x="713.47" y="-178.4" font-family="Times,serif" font-size="18.00">Ring Buffer Frame (×3 in flight)</text>
</g>
<!-- Wait -->
<g id="node1" class="node">
<title>Wait</title>
<ellipse fill="lightyellow" stroke="black" cx="73.45" cy="-98.5" rx="57.45" ry="26.87"/>
<text xml:space="preserve" text-anchor="middle" x="73.45" y="-100.2" font-family="Helvetica,sans-Serif" font-size="14.00">Wait for</text>
<text xml:space="preserve" text-anchor="middle" x="73.45" y="-85.2" font-family="Helvetica,sans-Serif" font-size="14.00">Frame N&#45;3</text>
</g>
<!-- ReadPixels -->
<g id="node2" class="node">
<title>ReadPixels</title>
<polygon fill="lightcyan" stroke="black" points="267.9,-109.5 167.9,-109.5 167.9,-71.5 267.9,-71.5 267.9,-109.5"/>
<text xml:space="preserve" text-anchor="middle" x="217.9" y="-92.2" font-family="Helvetica,sans-Serif" font-size="14.00">Read Pixels</text>
<text xml:space="preserve" text-anchor="middle" x="217.9" y="-77.2" font-family="Helvetica,sans-Serif" font-size="14.00">(from staging)</text>
</g>
<!-- Wait&#45;&gt;ReadPixels -->
<g id="edge1" class="edge">
<title>Wait&#45;&gt;ReadPixels</title>
<path fill="none" stroke="black" d="M130.75,-95.34C139.09,-94.87 147.72,-94.39 156.15,-93.91"/>
<polygon fill="black" stroke="black" points="156.17,-97.42 165.96,-93.36 155.78,-90.43 156.17,-97.42"/>
</g>
<!-- Reset -->
<g id="node3" class="node">
<title>Reset</title>
<ellipse fill="lightyellow" stroke="black" cx="365.02" cy="-90.5" rx="60.12" ry="18"/>
<text xml:space="preserve" text-anchor="middle" x="365.02" y="-84.7" font-family="Helvetica,sans-Serif" font-size="14.00">Reset Fence</text>
</g>
<!-- ReadPixels&#45;&gt;Reset -->
<g id="edge2" class="edge">
<title>ReadPixels&#45;&gt;Reset</title>
<path fill="none" stroke="black" d="M268.04,-90.5C276.12,-90.5 284.64,-90.5 293.13,-90.5"/>
<polygon fill="black" stroke="black" points="293.13,-94 303.13,-90.5 293.13,-87 293.13,-94"/>
</g>
<!-- UpdateUBO -->
<g id="node4" class="node">
<title>UpdateUBO</title>
<polygon fill="lightblue" stroke="black" points="579.39,-109.5 462.14,-109.5 462.14,-71.5 579.39,-71.5 579.39,-109.5"/>
<text xml:space="preserve" text-anchor="middle" x="520.77" y="-92.2" font-family="Helvetica,sans-Serif" font-size="14.00">Update UBOs</text>
<text xml:space="preserve" text-anchor="middle" x="520.77" y="-77.2" font-family="Helvetica,sans-Serif" font-size="14.00">(Camera, Lights)</text>
</g>
<!-- Reset&#45;&gt;UpdateUBO -->
<g id="edge3" class="edge">
<title>Reset&#45;&gt;UpdateUBO</title>
<path fill="none" stroke="black" d="M425.47,-90.5C433.66,-90.5 442.13,-90.5 450.48,-90.5"/>
<polygon fill="black" stroke="black" points="450.24,-94 460.24,-90.5 450.24,-87 450.24,-94"/>
</g>
<!-- Shadow -->
<g id="node5" class="node">
<title>Shadow</title>
<polygon fill="#e5e5e5" stroke="black" points="737.39,-109.5 638.89,-109.5 638.89,-71.5 737.39,-71.5 737.39,-109.5"/>
<text xml:space="preserve" text-anchor="middle" x="688.14" y="-92.2" font-family="Helvetica,sans-Serif" font-size="14.00">Shadow Pass</text>
<text xml:space="preserve" text-anchor="middle" x="688.14" y="-77.2" font-family="Helvetica,sans-Serif" font-size="14.00">(Depth Only)</text>
</g>
<!-- UpdateUBO&#45;&gt;Shadow -->
<g id="edge4" class="edge">
<title>UpdateUBO&#45;&gt;Shadow</title>
<path fill="none" stroke="black" d="M579.61,-90.5C595.12,-90.5 611.93,-90.5 627.53,-90.5"/>
<polygon fill="black" stroke="black" points="627.14,-94 637.14,-90.5 627.14,-87 627.14,-94"/>
</g>
<!-- Note1 -->
<g id="node10" class="node">
<title>Note1</title>
<polygon fill="white" stroke="black" points="753.89,-53 616.39,-53 616.39,0 759.89,0 759.89,-47 753.89,-53"/>
<polyline fill="none" stroke="black" points="753.89,-53 753.89,-47"/>
<polyline fill="none" stroke="black" points="759.89,-47 753.89,-47"/>
<text xml:space="preserve" text-anchor="middle" x="688.14" y="-35.7" font-family="Helvetica,sans-Serif" font-size="14.00">No GPU stalls!</text>
<text xml:space="preserve" text-anchor="middle" x="688.14" y="-20.7" font-family="Helvetica,sans-Serif" font-size="14.00">CPU prepares N+1</text>
<text xml:space="preserve" text-anchor="middle" x="688.14" y="-5.7" font-family="Helvetica,sans-Serif" font-size="14.00">while GPU renders N</text>
</g>
<!-- UpdateUBO&#45;&gt;Note1 -->
<!-- Main -->
<g id="node6" class="node">
<title>Main</title>
<polygon fill="lightgreen" stroke="black" points="920.89,-109.5 796.89,-109.5 796.89,-71.5 920.89,-71.5 920.89,-109.5"/>
<text xml:space="preserve" text-anchor="middle" x="858.89" y="-92.2" font-family="Helvetica,sans-Serif" font-size="14.00">Main Pass</text>
<text xml:space="preserve" text-anchor="middle" x="858.89" y="-77.2" font-family="Helvetica,sans-Serif" font-size="14.00">(PBR + Shadows)</text>
</g>
<!-- Shadow&#45;&gt;Main -->
<g id="edge5" class="edge">
<title>Shadow&#45;&gt;Main</title>
<path fill="none" stroke="black" d="M737.5,-90.5C752.46,-90.5 769.27,-90.5 785.48,-90.5"/>
<polygon fill="black" stroke="black" points="785.07,-94 795.07,-90.5 785.07,-87 785.07,-94"/>
</g>
<!-- CopyStaging -->
<g id="node7" class="node">
<title>CopyStaging</title>
<polygon fill="lightcyan" stroke="black" points="1059.39,-113.5 957.89,-113.5 957.89,-75.5 1059.39,-75.5 1059.39,-113.5"/>
<text xml:space="preserve" text-anchor="middle" x="1008.64" y="-96.2" font-family="Helvetica,sans-Serif" font-size="14.00">Copy to</text>
<text xml:space="preserve" text-anchor="middle" x="1008.64" y="-81.2" font-family="Helvetica,sans-Serif" font-size="14.00">Staging Buffer</text>
</g>
<!-- Main&#45;&gt;CopyStaging -->
<g id="edge6" class="edge">
<title>Main&#45;&gt;CopyStaging</title>
<path fill="none" stroke="black" d="M921.27,-92.16C929.46,-92.38 937.86,-92.61 946.06,-92.83"/>
<polygon fill="black" stroke="black" points="945.86,-96.33 955.95,-93.1 946.05,-89.33 945.86,-96.33"/>
</g>
<!-- Submit -->
<g id="node8" class="node">
<title>Submit</title>
<ellipse fill="lightyellow" stroke="black" cx="1169.76" cy="-98.5" rx="73.36" ry="26.87"/>
<text xml:space="preserve" text-anchor="middle" x="1169.76" y="-100.2" font-family="Helvetica,sans-Serif" font-size="14.00">Queue Submit</text>
<text xml:space="preserve" text-anchor="middle" x="1169.76" y="-85.2" font-family="Helvetica,sans-Serif" font-size="14.00">(Signal Fence)</text>
</g>
<!-- CopyStaging&#45;&gt;Submit -->
<g id="edge7" class="edge">
<title>CopyStaging&#45;&gt;Submit</title>
<path fill="none" stroke="black" d="M1059.55,-95.75C1067.66,-95.96 1076.25,-96.17 1084.91,-96.39"/>
<polygon fill="black" stroke="black" points="1084.7,-99.89 1094.79,-96.64 1084.88,-92.89 1084.7,-99.89"/>
</g>
<!-- Advance -->
<g id="node9" class="node">
<title>Advance</title>
<ellipse fill="lightyellow" stroke="black" cx="1345.53" cy="-98.5" rx="65.41" ry="26.87"/>
<text xml:space="preserve" text-anchor="middle" x="1345.53" y="-100.2" font-family="Helvetica,sans-Serif" font-size="14.00">Advance</text>
<text xml:space="preserve" text-anchor="middle" x="1345.53" y="-85.2" font-family="Helvetica,sans-Serif" font-size="14.00">Frame Index</text>
</g>
<!-- Submit&#45;&gt;Advance -->
<g id="edge8" class="edge">
<title>Submit&#45;&gt;Advance</title>
<path fill="none" stroke="black" d="M1243.44,-98.5C1251.76,-98.5 1260.25,-98.5 1268.6,-98.5"/>
<polygon fill="black" stroke="black" points="1268.36,-102 1278.36,-98.5 1268.36,-95 1268.36,-102"/>
</g>
<!-- Advance&#45;&gt;Wait -->
<g id="edge9" class="edge">
<title>Advance&#45;&gt;Wait</title>
<path fill="none" stroke="black" stroke-dasharray="5,2" d="M1299.73,-118.11C1282.4,-124.71 1262.17,-131.22 1243.12,-134.5 1178.85,-145.57 1161.6,-135.06 1096.39,-134.5 683.69,-130.94 577.95,-165.46 167.9,-118.5 157.38,-117.29 146.3,-115.45 135.59,-113.35"/>
<polygon fill="black" stroke="black" points="136.58,-109.98 126.08,-111.4 135.17,-116.84 136.58,-109.98"/>
<text xml:space="preserve" text-anchor="middle" x="688.14" y="-146.22" font-family="Times,serif" font-size="14.00">next frame</text>
</g>
</g>
</svg>
