<?xml version="1.0" encoding="UTF-8" standalone="no"?>
<!DOCTYPE svg PUBLIC "-//W3C//DTD SVG 1.1//EN"
 "http://www.w3.org/Graphics/SVG/1.1/DTD/svg11.dtd">
<!-- Generated by graphviz version 14.1.1 (20251213.1925)
 -->
<!-- Title: OHAO_Architecture Pages: 1 -->
<svg width="682pt" height="558pt"
 viewBox="0.00 0.00 682.00 558.00" xmlns="http://www.w3.org/2000/svg" xmlns:xlink="http://www.w3.org/1999/xlink">
<g id="graph0" class="graph" transform="scale(1 1) rotate(0) translate(4 554)">
<title>OHAO_Architecture</title>
<polygon fill="white" stroke="none" points="-4,4 -4,-554 678,-554 678,4 -4,4"/>
<text xml:space="preserve" text-anchor="middle" x="337" y="-527" font-family="Times,serif" font-size="20.00">OHAO Engine &#45; System Architecture</text>
<g id="clust1" class="cluster">
<title>cluster_godot</title>
<polygon fill="lightblue" stroke="lightblue" points="8,-308 8,-511.5 370,-511.5 370,-308 8,-308"/>
<text xml:space="preserve" text-anchor="middle" x="189" y="-488.5" font-family="Times,serif" font-size="20.00">Godot Editor</text>
</g>
<g id="clust2" class="cluster">
<title>cluster_ohao</title>
<polygon fill="lightgreen" stroke="lightgreen" points="378,-98.5 378,-392.5 666,-392.5 666,-98.5 378,-98.5"/>
<text xml:space="preserve" text-anchor="middle" x="522" y="-369.5" font-family="Times,serif" font-size="20.00">OHAO Engine (C++)</text>
</g>
<g id="clust3" class="cluster">
<title>cluster_vulkan</title>
<polygon fill="lightyellow" stroke="lightyellow" points="54,-8 54,-183 370,-183 370,-8 54,-8"/>
<text xml:space="preserve" text-anchor="middle" x="212" y="-160" font-family="Times,serif" font-size="20.00">Vulkan Backend</text>
</g>
<!-- GodotUI -->
<g id="node1" class="node">
<title>GodotUI</title>
<polygon fill="lightskyblue" stroke="black" points="173.88,-473 16.12,-473 16.12,-435 173.88,-435 173.88,-473"/>
<text xml:space="preserve" text-anchor="middle" x="95" y="-455.7" font-family="Helvetica,sans-Serif" font-size="14.00">Godot UI</text>
<text xml:space="preserve" text-anchor="middle" x="95" y="-440.7" font-family="Helvetica,sans-Serif" font-size="14.00">(Scene Tree, Inspector)</text>
</g>
<!-- OhaoViewport -->
<g id="node2" class="node">
<title>OhaoViewport</title>
<polygon fill="steelblue" stroke="black" points="248.25,-354 95.75,-354 95.75,-316 248.25,-316 248.25,-354"/>
<text xml:space="preserve" text-anchor="middle" x="172" y="-336.7" font-family="Helvetica,sans-Serif" font-size="14.00" fill="white">OhaoViewport</text>
<text xml:space="preserve" text-anchor="middle" x="172" y="-321.7" font-family="Helvetica,sans-Serif" font-size="14.00" fill="white">(GDExtension Control)</text>
</g>
<!-- GodotUI&#45;&gt;OhaoViewport -->
<g id="edge1" class="edge">
<title>GodotUI&#45;&gt;OhaoViewport</title>
<path fill="none" stroke="black" d="M90.25,-434.66C88.49,-424.17 87.99,-411.05 93,-400.5 100.6,-384.49 114.33,-371.14 128.23,-360.82"/>
<polygon fill="black" stroke="black" points="129.89,-363.93 136.09,-355.34 125.89,-358.19 129.89,-363.93"/>
<text xml:space="preserve" text-anchor="middle" x="114" y="-403.7" font-family="Times,serif" font-size="14.00">embeds</text>
</g>
<!-- OhaoViewport&#45;&gt;GodotUI -->
<g id="edge13" class="edge">
<title>OhaoViewport&#45;&gt;GodotUI</title>
<path fill="none" stroke="black" d="M166.12,-354.19C160.03,-371.4 149.36,-397.43 135,-417 132.53,-420.36 129.71,-423.64 126.73,-426.77"/>
<polygon fill="black" stroke="black" points="124.44,-424.12 119.7,-433.6 129.32,-429.14 124.44,-424.12"/>
<text xml:space="preserve" text-anchor="middle" x="183.72" y="-403.7" font-family="Times,serif" font-size="14.00">ImageTexture</text>
</g>
<!-- OffscreenRenderer -->
<g id="node4" class="node">
<title>OffscreenRenderer</title>
<polygon fill="seagreen" stroke="black" points="517.75,-263.5 386.25,-263.5 386.25,-225.5 517.75,-225.5 517.75,-263.5"/>
<text xml:space="preserve" text-anchor="middle" x="452" y="-246.2" font-family="Helvetica,sans-Serif" font-size="14.00" fill="white">OffscreenRenderer</text>
<text xml:space="preserve" text-anchor="middle" x="452" y="-231.2" font-family="Helvetica,sans-Serif" font-size="14.00" fill="white">(Vulkan Pipeline)</text>
</g>
<!-- OhaoViewport&#45;&gt;OffscreenRenderer -->
<g id="edge3" class="edge">
<title>OhaoViewport&#45;&gt;OffscreenRenderer</title>
<path fill="none" stroke="black" d="M230.36,-315.56C274.72,-301.53 335.9,-282.2 382.74,-267.39"/>
<polygon fill="black" stroke="black" points="383.8,-270.73 392.28,-264.38 381.69,-264.05 383.8,-270.73"/>
<text xml:space="preserve" text-anchor="middle" x="358.83" y="-284.7" font-family="Times,serif" font-size="14.00">render()</text>
</g>
<!-- Scene -->
<g id="node5" class="node">
<title>Scene</title>
<polygon fill="mediumseagreen" stroke="black" points="548.12,-354 385.88,-354 385.88,-316 548.12,-316 548.12,-354"/>
<text xml:space="preserve" text-anchor="middle" x="467" y="-336.7" font-family="Helvetica,sans-Serif" font-size="14.00">Scene</text>
<text xml:space="preserve" text-anchor="middle" x="467" y="-321.7" font-family="Helvetica,sans-Serif" font-size="14.00">(Actor/Component ECS)</text>
</g>
<!-- OhaoViewport&#45;&gt;Scene -->
<g id="edge4" class="edge">
<title>OhaoViewport&#45;&gt;Scene</title>
<path fill="none" stroke="black" d="M248.74,-335C287.04,-335 333.69,-335 374.02,-335"/>
<polygon fill="black" stroke="black" points="373.97,-338.5 383.97,-335 373.97,-331.5 373.97,-338.5"/>
<text xml:space="preserve" text-anchor="middle" x="317.06" y="-341.2" font-family="Times,serif" font-size="14.00">scene management</text>
</g>
<!-- GodotScene -->
<g id="node3" class="node">
<title>GodotScene</title>
<polygon fill="lightskyblue" stroke="black" points="362.25,-473 191.75,-473 191.75,-435 362.25,-435 362.25,-473"/>
<text xml:space="preserve" text-anchor="middle" x="277" y="-455.7" font-family="Helvetica,sans-Serif" font-size="14.00">Godot 3D Scene</text>
<text xml:space="preserve" text-anchor="middle" x="277" y="-440.7" font-family="Helvetica,sans-Serif" font-size="14.00">(MeshInstance3D, Lights)</text>
</g>
<!-- GodotScene&#45;&gt;OhaoViewport -->
<g id="edge2" class="edge">
<title>GodotScene&#45;&gt;OhaoViewport</title>
<path fill="none" stroke="black" d="M260.59,-434.72C243.26,-415.4 215.74,-384.74 195.97,-362.71"/>
<polygon fill="black" stroke="black" points="198.59,-360.38 189.3,-355.28 193.38,-365.06 198.59,-360.38"/>
<text xml:space="preserve" text-anchor="middle" x="295.54" y="-403.7" font-family="Times,serif" font-size="14.00">sync_from_godot()</text>
</g>
<!-- DeferredRenderer -->
<g id="node7" class="node">
<title>DeferredRenderer</title>
<polygon fill="seagreen" stroke="black" points="581.38,-144.5 456.62,-144.5 456.62,-106.5 581.38,-106.5 581.38,-144.5"/>
<text xml:space="preserve" text-anchor="middle" x="519" y="-127.2" font-family="Helvetica,sans-Serif" font-size="14.00" fill="white">DeferredRenderer</text>
<text xml:space="preserve" text-anchor="middle" x="519" y="-112.2" font-family="Helvetica,sans-Serif" font-size="14.00" fill="white">(AAA Quality)</text>
</g>
<!-- OffscreenRenderer&#45;&gt;DeferredRenderer -->
<g id="edge7" class="edge">
<title>OffscreenRenderer&#45;&gt;DeferredRenderer</title>
<path fill="none" stroke="black" d="M462.47,-225.22C473.33,-206.24 490.47,-176.33 503.03,-154.4"/>
<polygon fill="black" stroke="black" points="505.92,-156.38 507.85,-145.97 499.85,-152.9 505.92,-156.38"/>
<text xml:space="preserve" text-anchor="middle" x="521.24" y="-194.2" font-family="Times,serif" font-size="14.00">deferred mode</text>
</g>
<!-- Framebuffer -->
<g id="node8" class="node">
<title>Framebuffer</title>
<polygon fill="gold" stroke="black" points="152.12,-144.5 61.88,-144.5 61.88,-106.5 152.12,-106.5 152.12,-144.5"/>
<text xml:space="preserve" text-anchor="middle" x="107" y="-127.2" font-family="Helvetica,sans-Serif" font-size="14.00">Offscreen</text>
<text xml:space="preserve" text-anchor="middle" x="107" y="-112.2" font-family="Helvetica,sans-Serif" font-size="14.00">Framebuffer</text>
</g>
<!-- OffscreenRenderer&#45;&gt;Framebuffer -->
<g id="edge5" class="edge">
<title>OffscreenRenderer&#45;&gt;Framebuffer</title>
<path fill="none" stroke="black" d="M386.01,-242.47C323.74,-238.72 229.9,-225.62 161,-183 148.47,-175.25 136.85,-163.91 127.63,-153.42"/>
<polygon fill="black" stroke="black" points="130.56,-151.47 121.45,-146.06 125.2,-155.97 130.56,-151.47"/>
<text xml:space="preserve" text-anchor="middle" x="228.26" y="-194.2" font-family="Times,serif" font-size="14.00">render to</text>
</g>
<!-- ShadowMap -->
<g id="node9" class="node">
<title>ShadowMap</title>
<polygon fill="gold" stroke="black" points="265.75,-144.5 170.25,-144.5 170.25,-106.5 265.75,-106.5 265.75,-144.5"/>
<text xml:space="preserve" text-anchor="middle" x="218" y="-127.2" font-family="Helvetica,sans-Serif" font-size="14.00">Shadow Map</text>
<text xml:space="preserve" text-anchor="middle" x="218" y="-112.2" font-family="Helvetica,sans-Serif" font-size="14.00">2048x2048</text>
</g>
<!-- OffscreenRenderer&#45;&gt;ShadowMap -->
<g id="edge6" class="edge">
<title>OffscreenRenderer&#45;&gt;ShadowMap</title>
<path fill="none" stroke="black" d="M385.8,-228.53C351.13,-218.84 308.94,-204.05 275,-183 262.23,-175.08 250.11,-163.81 240.35,-153.42"/>
<polygon fill="black" stroke="black" points="243.06,-151.19 233.77,-146.11 237.86,-155.88 243.06,-151.19"/>
<text xml:space="preserve" text-anchor="middle" x="354.66" y="-194.2" font-family="Times,serif" font-size="14.00">shadow pass</text>
</g>
<!-- Scene&#45;&gt;OffscreenRenderer -->
<g id="edge9" class="edge">
<title>Scene&#45;&gt;OffscreenRenderer</title>
<path fill="none" stroke="black" d="M463.89,-315.66C461.9,-303.92 459.27,-288.41 456.99,-274.96"/>
<polygon fill="black" stroke="black" points="460.48,-274.58 455.36,-265.31 453.58,-275.75 460.48,-274.58"/>
<text xml:space="preserve" text-anchor="middle" x="502.84" y="-284.7" font-family="Times,serif" font-size="14.00">mesh/light data</text>
</g>
<!-- PhysicsWorld -->
<g id="node6" class="node">
<title>PhysicsWorld</title>
<polygon fill="mediumseagreen" stroke="black" points="658.25,-263.5 535.75,-263.5 535.75,-225.5 658.25,-225.5 658.25,-263.5"/>
<text xml:space="preserve" text-anchor="middle" x="597" y="-246.2" font-family="Helvetica,sans-Serif" font-size="14.00">PhysicsWorld</text>
<text xml:space="preserve" text-anchor="middle" x="597" y="-231.2" font-family="Helvetica,sans-Serif" font-size="14.00">(Custom Physics)</text>
</g>
<!-- Scene&#45;&gt;PhysicsWorld -->
<g id="edge10" class="edge">
<title>Scene&#45;&gt;PhysicsWorld</title>
<path fill="none" stroke="black" d="M517.8,-315.65C528.56,-310.7 539.52,-304.79 549,-298 558.94,-290.88 568.37,-281.41 576.2,-272.48"/>
<polygon fill="black" stroke="black" points="578.73,-274.9 582.48,-264.99 573.37,-270.41 578.73,-274.9"/>
<text xml:space="preserve" text-anchor="middle" x="601.15" y="-284.7" font-family="Times,serif" font-size="14.00">physics sync</text>
</g>
<!-- GBuffer -->
<g id="node10" class="node">
<title>GBuffer</title>
<polygon fill="gold" stroke="black" points="361.75,-144.5 284.25,-144.5 284.25,-106.5 361.75,-106.5 361.75,-144.5"/>
<text xml:space="preserve" text-anchor="middle" x="323" y="-127.2" font-family="Helvetica,sans-Serif" font-size="14.00">G&#45;Buffer</text>
<text xml:space="preserve" text-anchor="middle" x="323" y="-112.2" font-family="Helvetica,sans-Serif" font-size="14.00">(Deferred)</text>
</g>
<!-- DeferredRenderer&#45;&gt;GBuffer -->
<g id="edge8" class="edge">
<title>DeferredRenderer&#45;&gt;GBuffer</title>
<path fill="none" stroke="black" d="M456.34,-125.5C429.54,-125.5 398.67,-125.5 373.38,-125.5"/>
<polygon fill="black" stroke="black" points="373.71,-122 363.71,-125.5 373.71,-129 373.71,-122"/>
<text xml:space="preserve" text-anchor="middle" x="409.19" y="-131.7" font-family="Times,serif" font-size="14.00">G&#45;Buffer pass</text>
</g>
<!-- PixelBuffer -->
<g id="node11" class="node">
<title>PixelBuffer</title>
<polygon fill="orange" stroke="black" points="177.5,-54 62.5,-54 62.5,-16 177.5,-16 177.5,-54"/>
<text xml:space="preserve" text-anchor="middle" x="120" y="-36.7" font-family="Helvetica,sans-Serif" font-size="14.00">Pixel Buffer</text>
<text xml:space="preserve" text-anchor="middle" x="120" y="-21.7" font-family="Helvetica,sans-Serif" font-size="14.00">(CPU Readable)</text>
</g>
<!-- Framebuffer&#45;&gt;PixelBuffer -->
<g id="edge11" class="edge">
<title>Framebuffer&#45;&gt;PixelBuffer</title>
<path fill="none" stroke="black" d="M109.69,-106.16C111.42,-94.42 113.7,-78.91 115.67,-65.46"/>
<polygon fill="black" stroke="black" points="119.1,-66.21 117.09,-55.81 112.17,-65.2 119.1,-66.21"/>
<text xml:space="preserve" text-anchor="middle" x="127.79" y="-75.2" font-family="Times,serif" font-size="14.00">copy</text>
</g>
<!-- PixelBuffer&#45;&gt;OhaoViewport -->
<g id="edge12" class="edge">
<title>PixelBuffer&#45;&gt;OhaoViewport</title>
<path fill="none" stroke="black" d="M91.2,-54.29C76.83,-65.18 60.86,-80.41 53,-98.5 38.03,-132.94 40.7,-147.52 53,-183 70.61,-233.8 113.18,-280.46 142.32,-308.08"/>
<polygon fill="black" stroke="black" points="139.7,-310.42 149.42,-314.65 144.46,-305.29 139.7,-310.42"/>
<text xml:space="preserve" text-anchor="middle" x="92.38" y="-194.2" font-family="Times,serif" font-size="14.00">getPixels()</text>
</g>
</g>
</svg>
